<svg id="visual" viewBox="0 0 900 600" width="900" height="600" xmlns="http://www.w3.org/2000/svg" xmlns:xlink="http://www.w3.org/1999/xlink" version="1.1"><path d="M0 109L50 103C100 97 200 85 300 92C400 99 500 125 600 135C700 145 800 139 850 136L900 133L900 0L850 0C800 0 700 0 600 0C500 0 400 0 300 0C200 0 100 0 50 0L0 0Z" fill="#4a6796"></path><path d="M0 271L50 266C100 261 200 251 300 263C400 275 500 309 600 316C700 323 800 303 850 293L900 283L900 131L850 134C800 137 700 143 600 133C500 123 400 97 300 90C200 83 100 95 50 101L0 107Z" fill="#304f7f"></path><path d="M0 397L50 393C100 389 200 381 300 393C400 405 500 437 600 436C700 435 800 401 850 384L900 367L900 281L850 291C800 301 700 321 600 314C500 307 400 273 300 261C200 249 100 259 50 264L0 269Z" fill="#1f3d69"></path><path d="M0 601L50 601C100 601 200 601 300 601C400 601 500 601 600 601C700 601 800 601 850 601L900 601L900 365L850 382C800 399 700 433 600 434C500 435 400 403 300 391C200 379 100 387 50 391L0 395Z" fill="#193254"></path></svg>